<svg xmlns="http://www.w3.org/2000/svg" viewBox="0 0 230 105"><linearGradient id="a" gradientUnits="userSpaceOnUse" x1="134.199" y1="6.489" x2="28.601" y2="27.334"><stop offset="0" stop-color="#ecb076"/><stop offset=".636" stop-color="#8d0000"/></linearGradient><path fill="url(#a)" d="M104.9 2.7C77.4.6 52.1 13.1 37.1 33.6 52.9 14.1 76.9 2.4 102.9 4.4c13.8 1.1 26.4 5.9 37 13.4.8-.7 1.6-1.3 2.5-1.9-10.7-7.3-23.5-12.1-37.5-13.2z"/><linearGradient id="b" gradientUnits="userSpaceOnUse" x1="162.749" y1="48.655" x2="171.984" y2="68.227"><stop offset="0" stop-color="#ecb076"/><stop offset=".221" stop-color="#d17e54"/><stop offset=".482" stop-color="#b44830"/><stop offset=".709" stop-color="#9f2116"/><stop offset=".889" stop-color="#920906"/><stop offset="1" stop-color="#8d0000"/></linearGradient><path fill="url(#b)" d="M167.1 50.9c4.6 10.7 7 22.6 6.7 35.1.2-1.5.4-3 .5-4.5.9-11.4-.8-22.5-4.8-32.5-.7.7-1.5 1.3-2.4 1.9z"/><linearGradient id="c" gradientUnits="userSpaceOnUse" x1="183.894" y1="4.186" x2="151.939" y2="36.14"><stop offset=".159" stop-color="#892326"/><stop offset=".341" stop-color="#d1734d" stop-opacity=".7"/><stop offset=".417" stop-color="#d8855a"/><stop offset=".51" stop-color="#d47f57"/><stop offset=".813" stop-color="#a43333"/><stop offset=".922" stop-color="#892326"/></linearGradient><ellipse fill="url(#c)" cx="154.4" cy="33.6" rx="19.4" ry="19"/><path fill="#333" d="M183.4 86V32h7.9l17.6 27.3c4 6.3 7.3 12 9.8 17.5l.2-.1c-.7-7.2-.8-13.8-.8-22.2V32h6.7v54h-7.2l-17.5-27.4c-3.9-6-7.5-12.2-10.2-18l-.2.1c.4 6.8.5 13.3.5 22.3v23h-6.8zM53 62.3c-.4-7.5-.9-16.7-.9-23.3H52c-2 6.2-4.2 13.1-7 20.5l-9.8 26.2h-5.4l-9-25.7c-2.6-7.7-4.8-14.6-6.3-21h-.2c-.2 6.7-.6 15.7-1.1 23.9L11.8 86H5l3.9-54H18l9.4 26.1c2.3 6.6 4.1 12.6 5.6 18.2h.2c1.5-5.4 3.4-11.4 5.9-18.2L48.9 32H58l3.4 54h-7L53 62.3zM97.3 36.3c12.8 0 23.2 10.2 23.2 22.7s-10.4 22.7-23.2 22.7c-12.8 0-23.2-10.2-23.2-22.7s10.4-22.7 23.2-22.7m0-4.7c-15.4 0-27.9 12.2-27.9 27.3s12.5 27.3 27.9 27.3 27.9-12.2 27.9-27.3-12.5-27.3-27.9-27.3z"/><g><path opacity=".6" fill="#881E1B" d="M5 94.1v-2s0-.1.1-.1h4.3c1.1 0 2 .9 2 1.9v2.3c0 1.1-.9 2-2 2H8s-.1 0-.1.1l1.4 4s0 .1-.1.1h-2-.1L5 96.3s0-.1.1-.1h3.7c.3 0 .5-.2.5-.5v-1.1c0-.3-.2-.5-.5-.5H5c0 .1 0 .1 0 0zM22.9 92.2v2s0 .1-.1.1h-6.3s-.1 0-.1-.1v-2s0-.1.1-.1l6.4.1c0-.1 0-.1 0 0zM22.9 96.3v2s0 .1-.1.1h-6.3s-.1 0-.1-.1v-2s0-.1.1-.1l6.4.1zM22.9 100.5v2s0 .1-.1.1h-6.3s-.1 0-.1-.1v-2s0-.1.1-.1l6.4.1c0-.1 0-.1 0 0zM28 92.1h4.3c1.1 0 2 .9 2 2v6.5c0 1.1-.9 2-2 2H28v-6.1h2.1v4s0 .1.1.1h1.6c.3 0 .5-.2.5-.5v-5.3c0-.2-.2-.4-.5-.4H28v-2.3z"/><path fill="#DDD" d="M47 92.1h2l2.1 4h.1l2.1-4h2s.1 0 .1.1v10.3s0 .1-.1.1h-2s-.1 0-.1-.1v-5.8c0-.1-.1-.1-.1 0l-2 3.8H51l-2-3.8c0-.1-.1 0-.1 0v5.8s0 .1-.1.1h-2s-.1 0-.1-.1l.3-10.4c-.1 0-.1 0 0 0zM65 92.1h-2.4c-1.1 0-2 .9-2 1.9v6.5c0 1.1.9 1.9 2 1.9H65c1.1 0 2-.9 2-2V94c0-1-1-1.9-2-1.9zm-.2 7.9c0 .2-.2.4-.4.4h-1.2c-.3 0-.5-.2-.5-.5v-5.3c0-.2.2-.4.5-.4h1.2c.3 0 .5.2.5.5l-.1 5.3zM76.4 92.1H74c-1.1 0-2 .9-2 1.9v6.5c0 1.1.9 1.9 2 1.9h2.4c1.1 0 2-.9 2-2V94c0-1-.9-1.9-2-1.9zm-.1 7.9c0 .2-.2.4-.4.4h-1.2c-.3 0-.5-.2-.5-.5v-5.3c0-.2.2-.4.5-.4h1.2c.3 0 .5.2.5.5l-.1 5.3zM83.6 92.1h2.1l2 4.2c0 .1.1 0 .1 0v-4.2s0-.1.1-.1h2s.1 0 .1.1v10.3s0 .1-.1.1h-2s-.1 0-.1-.1v-1.2-.1l-2-4.2c0-.1-.1 0-.1 0v5.4s0 .1-.1.1h-2s-.1 0-.1-.1l.1-10.2c-.1 0-.1 0 0 0zM102.5 92.1h2s.1 0 .1.1v10.3s0 .1-.1.1h-2s-.1 0-.1-.1l.1-10.4zM109.8 92.1h6.3s.1 0 .1.1v2s0 .1-.1.1h-2s-.1 0-.1.1v8.2s0 .1-.1.1h-2s-.1 0-.1-.1v-8.2s0-.1-.1-.1h-2s-.1 0-.1-.1l.2-2.1zM128.7 96.3h6.3v2h-6.3v-2zM149.5 92.1h2.4c1.1 0 2 .9 2 1.9v2.2s0 .1-.1.1h-2s-.1 0-.1-.1v-1.5c0-.3-.2-.5-.5-.5H150c-.3 0-.5.2-.5.5v5.3c0 .2.2.4.4.4h1.2c.3 0 .5-.2.5-.4v-1.6s0-.1.1-.1h2s.1 0 .1.1v2.1c0 1.1-.9 2-2 2h-2.4c-1.1 0-2-.9-2-2V94c.1-1 1-1.9 2.1-1.9zM163.4 92.1H161c-1.1 0-2 .9-2 1.9v6.5c0 1.1.9 1.9 2 1.9h2.4c1.1 0 2-.9 2-2V94c0-1-.9-1.9-2-1.9zm-.2 7.9c0 .2-.2.4-.4.4h-1.2c-.3 0-.5-.2-.5-.5v-5.3c0-.2.2-.4.5-.4h1.2c.3 0 .5.2.5.5l-.1 5.3zM170.5 92.1h2l2.1 4h.1l2.1-4h2s.1 0 .1.1v10.3s0 .1-.1.1h-2s-.1 0-.1-.1v-5.8c0-.1-.1-.1-.1 0l-2 3.8h-.1l-2-3.8c0-.1-.1 0-.1 0v5.8s0 .1-.1.1h-2s-.1 0-.1-.1l.3-10.4zM184.2 92.1h4.3c1.1 0 2 .9 2 2v2.3c0 1.1-.9 2-2 2h-2.1c-.1 0-.1 0-.1.1v4s0 .1-.1.1h-2s-.1 0-.1-.1v-6.1s0-.1.1-.1h3.7c.3 0 .5-.2.5-.5v-1.2c0-.3-.2-.5-.5-.5h-3.7s-.1 0-.1-.1l.1-1.9zM200.1 92.1h-2.4c-1.1 0-2 .9-2 1.9v8.4s0 .1.1.1h2s.1 0 .1-.1v-4h2v4s0 .1.1.1h2s.1 0 .1-.1V94c0-1-.9-1.9-2-1.9zm-.2 4.1s0 .1 0 0l-2 .1s-.1 0-.1-.1v-1.5c0-.3.2-.5.5-.5h1.1c.3 0 .5.2.5.5v1.5zM207.2 92.1h2.1l2 4.2c0 .1.1 0 .1 0v-4.2s0-.1.1-.1h2s.1 0 .1.1v10.3s0 .1-.1.1h-2s-.1 0-.1-.1v-1.2-.1l-2-4.2c0-.1-.1 0-.1 0v5.4s0 .1-.1.1h-2s-.1 0-.1-.1l.1-10.2zM218.7 92.1h2l1 2.4h.1l1-2.4h2s.1 0 .1.1l-2.1 5.1v5.1s0 .1-.1.1h-2s-.1 0-.1-.1v-5.1l-1.9-5.2z"/></g></svg>