<?xml version="1.0" encoding="utf-8"?>
<!-- Generator: Adobe Illustrator 18.1.1, SVG Export Plug-In . SVG Version: 6.00 Build 0)  -->
<svg version="1.1" id="facebook" xmlns="http://www.w3.org/2000/svg" xmlns:xlink="http://www.w3.org/1999/xlink" x="0px" y="0px"
	 viewBox="0 0 40 74" enable-background="new 0 0 40 74" xml:space="preserve">
<g>
	<path d="M38.5,0l-9.6,0C18.1,0,11.2,7.2,11.2,18.2v8.4H1.5c-0.8,0-1.5,0.7-1.5,1.5v12.2c0,0.8,0.7,1.5,1.5,1.5h9.7v30.7
		c0,0.8,0.7,1.5,1.5,1.5h12.6c0.8,0,1.5-0.7,1.5-1.5V41.8H38c0.8,0,1.5-0.7,1.5-1.5V28.1c0-0.4-0.2-0.8-0.4-1.1
		c-0.3-0.3-0.7-0.4-1.1-0.4H26.7v-7.1c0-3.4,0.8-5.2,5.3-5.2h6.5c0.8,0,1.5-0.7,1.5-1.5V1.5C40,0.7,39.3,0,38.5,0z"/>
</g>
</svg>
