<?xml version="1.0" encoding="utf-8"?>
<!-- Generator: Adobe Illustrator 18.1.1, SVG Export Plug-In . SVG Version: 6.00 Build 0)  -->
<svg version="1.1" id="link" xmlns="http://www.w3.org/2000/svg" xmlns:xlink="http://www.w3.org/1999/xlink" x="0px" y="0px"
	 viewBox="0 0 100 100" enable-background="new 0 0 100 100" xml:space="preserve">
<g>
	<path id="LinkedIn" d="M100,60.8v36.8H78.6V63.3c0-8.6-3.1-14.5-10.9-14.5c-5.9,0-9.5,4-11,7.8c-0.5,1.4-0.7,3.3-0.7,5.3v35.8H34.6
		c0,0,0.3-58.1,0-64.1H56v9.1c0,0.1-0.1,0.1-0.1,0.3H56v-0.3c2.9-4.4,7.9-10.6,19.4-10.6C89.4,31.9,100,41,100,60.8z M12.1,2.5
		C4.9,2.5,0,7.3,0,13.6c0,6.1,4.6,11.1,11.9,11.1H12c7.5,0,12.1-4.9,12.1-11.1C24,7.3,19.5,2.5,12.1,2.5z M1.3,97.5h21.4V33.4H1.3
		V97.5z"/>
</g>
</svg>
