<?xml version="1.0" encoding="utf-8"?>
<!-- Generator: Adobe Illustrator 18.1.1, SVG Export Plug-In . SVG Version: 6.00 Build 0)  -->
<svg version="1.1" id="phone" xmlns="http://www.w3.org/2000/svg" xmlns:xlink="http://www.w3.org/1999/xlink" x="0px" y="0px"
	 viewBox="0 0 100 100" enable-background="new 0 0 100 100" xml:space="preserve">
<g>
	<path d="M26.9,32.6c-0.6,0.6-1,1-1,1.4c-1,1.6-1,3.4,0,5.4c0.6,2,1.4,3.4,2,4c0.6,1.4,2,2.6,3.4,4l22,22.4c1.6,1.4,3,2.4,4,3
		c0.4,0,0.6,0.4,1.6,0.6c0.6,0.4,2,1,3.6,1.6c1.6,0.6,3.4,0,5-2l24.4,24.4c-1.6,1.4-4,2-6.4,2.4c-2.3,0.2-5.3,0.2-8.9,0.2
		c-3.6-0.4-7-0.6-10-1.4c-3-0.6-5.6-1.6-8-3.4c-5.4-3-10.8-6.4-16-10.4c-5.4-3.6-10.4-8-15-13c-6.6-6.6-12-13-16.4-19
		C7.1,47,4.1,41.3,2.8,36.3c-3.6-12.6-3.6-22,0-28.8L26.9,32.6z M74.3,66.3c1-1.4,2.4-1.4,4-0.4c0.6,0.4,1.4,1,1.6,1.4L97.6,85
		c1.6,1.4,2.4,2.6,2.4,3.4c0,0.7-0.6,1.6-1.4,2.6l-4,4L70.3,70.6L74.3,66.3z M9.8,0.5c0.6-0.6,1-0.6,1.6-0.4c0.4,0,0.6,0,1.4,0.4
		c0.7,0.4,1,0.8,1.4,1l19,18.8c1,1,1.4,2,1.6,2.6c0,1,0,1.6-0.6,2l-4,4.4L5.4,4.9L9.8,0.5z"/>
</g>
</svg>
