<?xml version="1.0" encoding="utf-8"?>
<!-- Generator: Adobe Illustrator 18.1.1, SVG Export Plug-In . SVG Version: 6.00 Build 0)  -->
<svg version="1.1" id="skype" xmlns="http://www.w3.org/2000/svg" xmlns:xlink="http://www.w3.org/1999/xlink" x="0px" y="0px"
	 viewBox="0 0 80 80" enable-background="new 0 0 80 80" xml:space="preserve">
<path fill="#24AEF0" d="M78.6,40.4c0-20.8-17.1-37.6-38.1-37.6c-2.2,0-4.4,0.2-6.5,0.5C30.5,1.2,26.5,0,22.1,0C9.9,0,0,9.8,0,21.8
	c0,4,1.1,7.8,3,11c-0.5,2.4-0.8,5-0.8,7.5C2.3,61.2,19.3,78,40.4,78c2.4,0,4.7-0.2,7-0.6c3.1,1.7,6.7,2.6,10.5,2.6
	C70.1,80,80,70.2,80,58.2c0-3.5-0.8-6.8-2.3-9.7C78.3,45.9,78.6,43.2,78.6,40.4z M60,58.4c-1.8,2.5-4.4,4.4-7.8,5.8
	c-3.3,1.4-7.3,2.1-11.9,2.1c-5.5,0-10.1-0.9-13.7-2.8c-2.6-1.4-4.7-3.2-6.3-5.5c-1.6-2.3-2.4-4.6-2.4-6.8c0-1.4,0.5-2.6,1.6-3.5
	c1-1,2.4-1.5,4-1.5c1.3,0,2.4,0.4,3.4,1.1c0.9,0.7,1.6,1.8,2.2,3.2c0.7,1.5,1.4,2.8,2.2,3.8c0.8,1,1.8,1.8,3.2,2.5
	c1.4,0.6,3.3,1,5.5,1c3.2,0,5.7-0.7,7.7-2c1.9-1.3,2.8-2.8,2.8-4.7c0-1.5-0.5-2.7-1.5-3.6c-1.1-1-2.4-1.7-4.1-2.2
	c-1.7-0.5-4.1-1.1-7-1.7c-4-0.8-7.3-1.8-10-2.9c-2.7-1.1-4.9-2.7-6.6-4.7c-1.6-2-2.5-4.6-2.5-7.5c0-2.8,0.9-5.4,2.6-7.6
	c1.7-2.2,4.2-3.9,7.4-5.1c3.2-1.2,6.9-1.7,11.2-1.7c3.4,0,6.4,0.4,8.9,1.2c2.5,0.8,4.6,1.8,6.3,3.1c1.7,1.3,2.9,2.7,3.7,4.1
	c0.8,1.5,1.2,2.9,1.2,4.3c0,1.3-0.5,2.6-1.6,3.6c-1,1.1-2.4,1.6-3.9,1.6c-1.4,0-2.5-0.3-3.3-1c-0.7-0.6-1.5-1.6-2.3-3
	c-0.9-1.8-2.1-3.2-3.4-4.2c-1.3-1-3.4-1.4-6.4-1.4c-2.7,0-5,0.5-6.6,1.6c-1.6,1-2.4,2.2-2.4,3.6c0,0.9,0.3,1.6,0.8,2.2
	c0.5,0.7,1.3,1.2,2.3,1.7c1,0.5,2,0.9,3.1,1.2c1.1,0.3,2.8,0.7,5.3,1.3c3.1,0.7,5.9,1.4,8.4,2.2c2.5,0.8,4.7,1.8,6.5,2.9
	c1.8,1.2,3.3,2.7,4.3,4.5c1,1.8,1.6,4,1.6,6.6C62.7,53.1,61.8,55.9,60,58.4z"/>
<g>
	<path fill="#22D5FF" d="M14.9,68.4c0.2,0.2,0.5,0.4,0.7,0.6c-0.8-1-1.7-2-2.5-3.1C13.7,66.7,14.3,67.6,14.9,68.4z"/>
	<path fill="#22D5FF" d="M31.2,68c3.6,1.9,8.2,2.8,13.7,2.8c4.6,0,8.6-0.7,11.9-2.1c3.4-1.4,6-3.3,7.8-5.8c1.8-2.5,2.7-5.3,2.7-8.4
		c0-2.6-0.5-4.8-1.5-6.6c-1-1.8-2.5-3.3-4.3-4.5c-0.1-0.1-0.2-0.1-0.3-0.2c0,0,0,0.1,0.1,0.1c1,1.8,1.6,4,1.6,6.6
		c0,3.1-0.9,5.9-2.7,8.4s-4.4,4.4-7.8,5.8c-3.3,1.4-7.3,2.1-11.9,2.1c-5.5,0-10.1-0.9-13.7-2.8c-0.6-0.3-1.2-0.7-1.8-1.1
		c0,0.1,0.1,0.1,0.1,0.2C26.6,64.8,28.7,66.7,31.2,68z"/>
</g>
<path fill="#0B97CE" d="M34.5,56.8c1.4,0.6,3.3,1,5.5,1c3.2,0,5.7-0.7,7.7-2c1.9-1.3,2.8-2.8,2.8-4.7c0-1.5-0.5-2.7-1.5-3.6
	c-0.4-0.4-0.9-0.7-1.4-1c-4.7,3.8-10.3,6.5-16.4,7.9C32.1,55.3,33.1,56.1,34.5,56.8z"/>
<path fill="#0798D8" d="M77.7,48.5c0.6-2.6,0.9-5.3,0.9-8.1c0-13.1-6.8-24.6-17.1-31.4c0.4,2.3,0.7,4.7,0.7,7.1
	c0,8.1-2.5,15.7-6.7,21.9c0.5,0.3,0.9,0.5,1.4,0.8c1.8,1.2,3.3,2.7,4.3,4.5c1,1.8,1.6,4,1.6,6.6c0,3.1-0.9,5.9-2.7,8.4
	s-4.4,4.4-7.8,5.8c-3.3,1.4-7.3,2.1-11.9,2.1c-5.5,0-10.1-0.9-13.7-2.8c-2.6-1.4-4.7-3.2-6.3-5.5c-0.7-1-1.2-2-1.6-2.9
	c-5.5-0.6-10.7-2.4-15.2-5c4.3,16.1,19.2,28,36.9,28c2.4,0,4.7-0.2,7-0.6c3.1,1.7,6.7,2.6,10.5,2.6C70.1,80,80,70.2,80,58.2
	C80,54.7,79.2,51.4,77.7,48.5z"/>
<path fill="#0D83CC" d="M78,47.1c-5.6,13.7-16.3,24.8-29.9,30.7c2.9,1.4,6.3,2.2,9.8,2.2C70.1,80,80,70.2,80,58.2
	c0-3.5-0.8-6.8-2.3-9.7C77.8,48,77.9,47.5,78,47.1z"/>
<g>
	<path fill="#22D5FF" d="M45.1,3.6c3.6,0.5,7,1.2,10.1,2.1c-4.5-1.9-9.5-2.9-14.7-2.9c-1.7,0-3.3,0.1-4.9,0.3
		C38.5,3,41.7,3.1,45.1,3.6z"/>
	<path fill="#22D5FF" d="M69.1,15.6c0,0.1,0.1,0.2,0.1,0.3c0.2,0.2,0.4,0.3,0.6,0.5C69.6,16.2,69.3,15.9,69.1,15.6z"/>
	<path fill="#22D5FF" d="M24.4,3.1c1.8,0,3.5,0.2,5.1,0.6c1.3-0.2,2.7-0.4,4.1-0.5C30.3,1.2,26.4,0,22.1,0C9.9,0,0,9.8,0,21.8
		c0,4,1.1,7.8,3,11c-0.5,2.4-0.8,5-0.8,7.5c0,0.6,0,1.2,0,1.8c0.6-2.7,1.5-5.1,2.6-7C3.2,32.2,2.3,28.7,2.3,25
		C2.3,12.9,12.2,3.1,24.4,3.1z"/>
</g>
</svg>
