<?xml version="1.0" encoding="utf-8"?>
<!-- Generator: Adobe Illustrator 18.1.1, SVG Export Plug-In . SVG Version: 6.00 Build 0)  -->
<svg version="1.1" id="viber" xmlns="http://www.w3.org/2000/svg" xmlns:xlink="http://www.w3.org/1999/xlink" x="0px" y="0px"
	 viewBox="0 0 80 80" enable-background="new 0 0 80 80" xml:space="preserve">
<g>
	<path fill="#7F40BD" d="M69.2,33.6c0.1-11.3-9.8-21.6-22-23.1c-0.2,0-0.5-0.1-0.8-0.1c-0.6-0.1-1.2-0.2-1.9-0.2
		c-2.5,0-3.2,1.7-3.4,2.7c-0.2,1,0,1.8,0.5,2.5c0.8,1.1,2.3,1.3,3.5,1.5c0.3,0,0.7,0.1,0.9,0.1c11,2.4,14.7,6.1,16.5,16.7
		c0,0.3,0.1,0.6,0.1,0.9c0.1,1.3,0.2,3.9,3.2,3.9l0,0c0.2,0,0.5,0,0.8-0.1c2.7-0.4,2.6-2.8,2.6-4c0-0.3,0-0.6,0-0.8
		C69.2,33.7,69.2,33.6,69.2,33.6z"/>
	<path fill="#7F40BD" d="M43.8,6.4c0.3,0,0.6,0,0.9,0.1c18,2.7,26.3,11,28.6,28.7c0,0.3,0,0.7,0.1,1.1c0,1.4,0.1,4.3,3.2,4.3h0.1
		c1,0,1.8-0.3,2.4-0.9c1-1,0.9-2.5,0.9-3.7c0-0.3,0-0.6,0-0.8C80.2,17.1,64.1,0.7,45.5,0c-0.1,0-0.2,0-0.2,0c0,0-0.1,0-0.2,0
		c-0.2,0-0.4,0-0.7,0c-0.3,0-0.6,0-1,0c-3,0-3.5,2.1-3.6,3.3C39.7,6.1,42.5,6.3,43.8,6.4z"/>
	<path fill="#7F40BD" d="M72.5,58.1c-0.4-0.3-0.8-0.6-1.1-0.9c-2-1.5-4.1-3-6.1-4.3c-0.4-0.3-0.8-0.6-1.3-0.9
		c-2.6-1.8-4.9-2.6-7.1-2.6c-3,0-5.6,1.6-7.7,4.7c-0.9,1.4-2.1,2.1-3.5,2.1c-0.8,0-1.8-0.2-2.8-0.7c-8.4-3.7-14.4-9.4-17.8-16.9
		c-1.7-3.6-1.1-6,1.8-7.9c1.7-1.1,4.7-3.1,4.5-7C31.1,19.3,21.1,6,16.9,4.5c-1.8-0.6-3.7-0.6-5.6,0C6.4,6,2.9,8.8,1.2,12.5
		c-1.7,3.6-1.6,7.7,0.2,12.1c5.3,12.6,12.7,23.6,22,32.6c9.1,8.9,20.4,16.1,33.4,21.6c1.2,0.5,2.4,0.8,3.3,1
		c0.3,0.1,0.6,0.1,0.8,0.2c0.1,0,0.2,0,0.3,0h0.1l0,0c6.1,0,13.5-5.4,15.7-11.7C79,62.9,75.4,60.2,72.5,58.1z"/>
	<path fill="#7F40BD" d="M46.6,20.8c-1.1,0-3.2,0.1-4,2.2c-0.4,1-0.3,1.9,0.1,2.6c0.6,1.1,1.9,1.4,3,1.6c4.1,0.6,6.2,2.9,6.6,7
		c0.2,1.9,1.5,3.3,3.2,3.3l0,0c0.1,0,0.3,0,0.4,0c2-0.2,3-1.7,2.9-4.3c0-2.8-1.4-5.9-4-8.4C52.4,22.1,49.3,20.7,46.6,20.8z"/>
</g>
</svg>
