<?xml version="1.0" encoding="utf-8"?>
<!-- Generator: Adobe Illustrator 18.1.1, SVG Export Plug-In . SVG Version: 6.00 Build 0)  -->
<svg version="1.1" id="instgram" xmlns="http://www.w3.org/2000/svg" xmlns:xlink="http://www.w3.org/1999/xlink" x="0px" y="0px"
	 viewBox="0 0 100 100" enable-background="new 0 0 100 100" xml:space="preserve">
<g>
	
		<linearGradient id="SVGID_1_" gradientUnits="userSpaceOnUse" x1="255.6029" y1="94.1903" x2="255.6029" y2="-450.9597" gradientTransform="matrix(0.1815 0 0 0.1815 3.6139 82.6155)">
		<stop  offset="0" style="stop-color:#E09B3D"/>
		<stop  offset="0.3" style="stop-color:#C74C4D"/>
		<stop  offset="0.6" style="stop-color:#C21975"/>
		<stop  offset="1" style="stop-color:#7024C4"/>
	</linearGradient>
	<path fill="url(#SVGID_1_)" d="M70.2,0H29.8C13.4,0,0,13.4,0,29.8v40.4C0,86.6,13.4,100,29.8,100h40.4c16.4,0,29.8-13.4,29.8-29.8
		V29.8C100,13.4,86.6,0,70.2,0z M89.9,70.2c0,10.9-8.8,19.7-19.7,19.7H29.8c-10.9,0-19.7-8.8-19.7-19.7V29.8
		c0-10.9,8.8-19.7,19.7-19.7h40.4c10.9,0,19.7,8.8,19.7,19.7L89.9,70.2L89.9,70.2z"/>
	
		<linearGradient id="SVGID_2_" gradientUnits="userSpaceOnUse" x1="255.6029" y1="94.1903" x2="255.6029" y2="-450.9597" gradientTransform="matrix(0.1815 0 0 0.1815 3.6139 82.6155)">
		<stop  offset="0" style="stop-color:#E09B3D"/>
		<stop  offset="0.3" style="stop-color:#C74C4D"/>
		<stop  offset="0.6" style="stop-color:#C21975"/>
		<stop  offset="1" style="stop-color:#7024C4"/>
	</linearGradient>
	<path fill="url(#SVGID_2_)" d="M50,24.1c-14.3,0-25.9,11.6-25.9,25.9S35.7,75.9,50,75.9S75.9,64.3,75.9,50S64.3,24.1,50,24.1z
		 M50,65.8c-8.7,0-15.8-7.1-15.8-15.8S41.3,34.2,50,34.2c8.7,0,15.8,7.1,15.8,15.8C65.8,58.7,58.7,65.8,50,65.8z"/>
	
		<linearGradient id="SVGID_3_" gradientUnits="userSpaceOnUse" x1="398.3959" y1="94.1903" x2="398.3959" y2="-450.9597" gradientTransform="matrix(0.1815 0 0 0.1815 3.6139 82.6155)">
		<stop  offset="0" style="stop-color:#E09B3D"/>
		<stop  offset="0.3" style="stop-color:#C74C4D"/>
		<stop  offset="0.6" style="stop-color:#C21975"/>
		<stop  offset="1" style="stop-color:#7024C4"/>
	</linearGradient>
	<circle fill="url(#SVGID_3_)" cx="75.9" cy="24.3" r="6.2"/>
</g>
</svg>
