<?xml version="1.0" encoding="utf-8"?>
<!-- Generator: Adobe Illustrator 18.1.1, SVG Export Plug-In . SVG Version: 6.00 Build 0)  -->
<svg version="1.1" id="redmoon" xmlns="http://www.w3.org/2000/svg" xmlns:xlink="http://www.w3.org/1999/xlink" x="0px" y="0px"
	 viewBox="0 0 650 115" enable-background="new 0 0 650 115" xml:space="preserve">
<g>
	<g>
		<linearGradient id="SVGID_1_" gradientUnits="userSpaceOnUse" x1="137.607" y1="13.5113" x2="172.5063" y2="33.6605">
			<stop  offset="0" style="stop-color:#FB9693"/>
			<stop  offset="0" style="stop-color:#FB716E"/>
			<stop  offset="0.4082" style="stop-color:#F74642"/>
			<stop  offset="0.4847" style="stop-color:#F7423E"/>
			<stop  offset="0.9949" style="stop-color:#A01814"/>
		</linearGradient>
		<path fill="url(#SVGID_1_)" d="M173.8,15.9c0,5.2,0,10.3,0,15.5c-0.3,0-0.5,0.1-0.7,0.1c-0.6,0-1.1,0.1-1.7,0.1
			c-11.1,0-22.1,0-33.2,0c-0.5,0-1,0-1.4-0.1c-0.5,0-0.8-0.4-0.9-0.8c-0.1-0.3-0.1-0.6-0.1-0.8c0-4.2,0-8.3,0-12.5
			c0-0.1,0-0.2,0-0.2c0-1.1,0.3-1.4,1.5-1.4c2.2,0,4.3,0,6.5,0c9.4,0,18.7,0,28.1,0C172.6,15.7,173.2,15.6,173.8,15.9z"/>
		<linearGradient id="SVGID_2_" gradientUnits="userSpaceOnUse" x1="179.7278" y1="29.926" x2="271.4522" y2="82.8831">
			<stop  offset="0" style="stop-color:#FB9693"/>
			<stop  offset="0" style="stop-color:#FB716E"/>
			<stop  offset="0.4082" style="stop-color:#F74642"/>
			<stop  offset="0.4847" style="stop-color:#F7423E"/>
			<stop  offset="0.9949" style="stop-color:#A01814"/>
		</linearGradient>
		<path fill="url(#SVGID_2_)" d="M221.1,115c-0.2,0-0.3,0-0.5,0c-0.3,0-0.7,0-1,0c-0.7-0.3-1-0.9-1-1.6c0-0.2,0-0.5,0-0.7
			c0-6.2,0-12.4,0-18.6c0-0.4,0-0.7,0-1.1c0.1-0.6,0.4-0.9,1-1.1c0.3-0.1,0.6-0.1,1-0.1c8.9,0,16.4-3.4,22.8-9.5
			c5.3-5.1,8.8-11.3,10.1-18.6c1.8-10.3-0.6-19.6-7.1-27.8c-3.8-4.7-8.4-8.3-14.1-10.5c-3.8-1.5-7.8-2.3-11.9-2.3
			c-1.5,0-1.9,0.3-1.9,1.9c0,3.4,0,6.8,0,10.2c0,9.4,0,18.8,0,28.2c0,0.4,0,0.9,0,1.3c-0.3,0-0.5,0.1-0.6,0.1
			c-4.1,0.1-20.2,0.1-21.3-0.1c0-0.2-0.1-0.4-0.1-0.7c0-0.2,0-0.5,0-0.7c0-20.1,0-40.3,0-60.4c0-0.6,0-1.1,0.1-1.7
			c0.1-0.8,0.5-1.3,1.3-1.3c0.6,0,1.2,0,1.8,0c5.2,0,10.5,0,15.7,0c0.4,0,0.9,0,1.3,0c0.7,0,1.4,0,2.2,0c0.5,0,1,0,1.4,0
			c0.3,0,0.6,0,1,0c0.4,0,0.8,0,1.2,0c1.8,0.2,3.6,0.3,5.4,0.5c4,0.4,8,1.4,11.8,2.8c8,3,15,7.7,21.1,13.7
			c5.5,5.4,9.7,11.7,12.6,18.8c1.6,4,2.7,8.1,3.3,12.4c0.6,4.1,0.8,8.3,0.6,12.5c-0.6,11-4,20.9-10.3,29.9c-3.7,5.2-7.9,9.8-13,13.6
			c-5.9,4.4-12.6,7.5-19.8,9.2c-3,0.7-6,1.1-9,1.4c-0.2,0-0.3,0-0.5,0.1c-0.9-0.1-1.8,0-2.6,0.2C221.6,115,221.4,115,221.1,115z"/>
		<linearGradient id="SVGID_3_" gradientUnits="userSpaceOnUse" x1="133.1571" y1="43.3571" x2="186.0236" y2="73.8795">
			<stop  offset="0" style="stop-color:#FB9693"/>
			<stop  offset="0" style="stop-color:#FB716E"/>
			<stop  offset="0.4082" style="stop-color:#F74642"/>
			<stop  offset="0.4847" style="stop-color:#F7423E"/>
			<stop  offset="0.9949" style="stop-color:#A01814"/>
		</linearGradient>
		<path fill="url(#SVGID_3_)" d="M183.4,38.4c0,5.3,0,10.4,0,15.5c-0.3,0.3-0.7,0.2-1,0.2c-4,0-8.1,0-12.1,0c-5.1,0-10.2,0-15.4,0
			c-0.4,0-0.9,0-1.3,0c-0.2,1-0.2,7.7,0,8.9c0.7,0.1,1.5,0.2,2.2,0.2c7.8,0,15.6,0,23.4,0c0.8,0,1.7,0,2.5-0.1c1.2,0,2,0.3,1.9,2
			c0,1.6,0,3.2,0,4.8c0,2.2,0,4.5,0,6.7c0,0.4,0,0.7,0,1.1c-0.1,0.8-0.4,1.1-1.2,1.2c-0.2,0-0.3,0-0.5,0c-1.8,0-3.6,0-5.4,0
			c-11.6,0.1-23.3,0.1-34.9,0.2c-1.4,0-2.7,0-4.1,0c-0.2,0-0.4,0-0.6,0c-0.9-0.1-1.2-0.4-1.3-1.3c0-0.3,0-0.6,0-1
			c0-12.1,0-24.3,0-36.4c0-0.4,0-0.8,0-1.2c0.1-0.5,0.3-0.8,0.8-0.9c0.4-0.1,0.9-0.1,1.3-0.1c3.6,0,7.3,0,10.9,0c5,0,10,0,15,0
			c6,0,11.9,0,17.9,0C182.1,38.3,182.7,38.4,183.4,38.4z"/>
		<linearGradient id="SVGID_4_" gradientUnits="userSpaceOnUse" x1="80.2116" y1="75.9043" x2="134.597" y2="107.3037">
			<stop  offset="0" style="stop-color:#FB9693"/>
			<stop  offset="0" style="stop-color:#FB716E"/>
			<stop  offset="0.4082" style="stop-color:#F74642"/>
			<stop  offset="0.4847" style="stop-color:#F7423E"/>
			<stop  offset="0.9949" style="stop-color:#A01814"/>
		</linearGradient>
		<path fill="url(#SVGID_4_)" d="M129.1,114.9c-0.4,0-0.7,0-1.1,0c-4.6,0-9.3,0-13.9,0c-1.2,0-2.4,0-3.6-0.1c-0.2,0-0.5-0.1-0.7-0.2
			c-0.1,0-0.2-0.1-0.2-0.1c-0.7-0.3-1.2-0.8-1.5-1.5c-1-1.8-2-3.6-3-5.4C98.6,95.8,92.1,84,85.7,72.2c-0.4-0.8-1.1-2-1.4-2.8l0,0
			c-0.2-0.3,0.1-0.7,0.4-0.7c0.2,0,0.5,0,0.7,0c6.1,0,12.2,0,18.3,0c0.2,0,0.4,0,0.6,0c1.1,0,1.8,0.4,2.3,1.4
			c0.9,1.7,1.8,3.4,2.8,5.1c6.8,12.4,13.6,24.9,20.3,37.3c0.3,0.5,0.5,1.1,0.8,1.6c0.1,0.3,0,0.6-0.4,0.7
			C129.7,114.9,129.4,114.9,129.1,114.9L129.1,114.9z"/>
		<linearGradient id="SVGID_5_" gradientUnits="userSpaceOnUse" x1="16.4027" y1="17.6813" x2="109.4212" y2="71.3856">
			<stop  offset="0" style="stop-color:#FB9693"/>
			<stop  offset="0" style="stop-color:#FB716E"/>
			<stop  offset="0.4082" style="stop-color:#F74642"/>
			<stop  offset="0.4847" style="stop-color:#F7423E"/>
			<stop  offset="0.9949" style="stop-color:#A01814"/>
		</linearGradient>
		<path fill="url(#SVGID_5_)" d="M121.6,28.1c-0.7-2.2-1.6-4.4-2.9-6.3c-1.7-2.4-4-4.1-6.8-5.1c-1.5-0.5-3-0.7-4.5-0.7
			c-1.3,0-2.6,0-4,0c-3.3,0-6.6-0.1-9.8-0.1C88.1,16,82.7,16,77.3,16c-0.9,0-1.8,0-2.8,0c-1.7,0-3.4,0.2-5,0.6
			c-5.3,1.4-8.7,4.6-10,10.1c-0.4,1.6-0.5,3.2-0.5,4.9c0,3.7,0,7.4,0,11.1c0,0.5-0.1,1-0.1,1.6c-0.1,0.5-0.4,0.8-0.9,0.9
			c-0.5,0.1-1,0.1-1.5,0.1c-8.5,0-17,0-25.5,0c-9.3,0-18.5,0-27.8,0c-0.6,0-1.3,0-1.9,0c-0.6,0-1.2,0.2-1.4,0.9c0,2.1,0,4.1,0,6.2
			c0,3.9,0,7.9,0,11.8c0.2,0.6,0.7,0.8,1.3,0.9c0.7,0.1,1.4,0.1,2,0.1c13.6,0,27.2,0,40.8-0.1c2.9,0,5.8-0.1,8.8-0.1
			c1.1,0,2.2,0,3.2,0c0.4,0,0.9,0.1,1.3,0.1c0.6,0.1,1,0.5,1.1,1.1c0.1,0.4,0.1,0.9,0.1,1.3c0,3.2,0,6.5,0,9.7c0,4.9,0,9.9,0,14.8
			c0,1.2,0.5,2,1.9,1.9c0.4,0,0.8,0,1.2,0c1.2,0,2.5,0,3.7,0c4.4,0,8.7,0,13.1,0c0.3,0,0.6,0,0.8,0c1.1-0.1,1.3-0.3,1.3-1.4
			c0-1.4,0.1-2.7,0.1-4.1c0-6.6,0-13.1-0.1-19.7c0-0.8,0-1.6,0-2.4c0.1-1,0.7-1.6,1.7-1.7c0.2,0,0.5,0,0.7,0
			c5.8,0,11.7,0.1,17.5,0.1c1.1,0,2.2,0,3.2-0.1c0.9-0.1,1.8-0.1,2.7-0.3c4.9-1,8.6-3.7,11.3-7.9c0.6-1.1,1.2-2.2,1.8-3.3
			c1.8-3.7,2.9-7.5,3.3-11.6C123.4,37,122.9,32.5,121.6,28.1z M100.5,43.7c-1,0.8-2.5,1.4-4.1,1.4c-4.4,0.1-8.8,0.1-13.2,0.1
			c-0.3,0-0.6,0-1-0.1c0-0.5-0.1-0.9-0.1-1.2c0-3,0-5.9,0-8.9c0-2.6,1.8-4.4,4.5-4.5c2.6,0,5.3,0,7.9,0c0.5,0,1.4,0,1.9,0
			c1.3,0,3,0.5,4.1,1.2c1.6,1.1,2.2,2.5,2.4,4.4C103.1,39.3,102.8,42.2,100.5,43.7z"/>
	</g>
	<g>
		<linearGradient id="SVGID_6_" gradientUnits="userSpaceOnUse" x1="541.0241" y1="17.82" x2="611.0243" y2="87.8202">
			<stop  offset="0.1837" style="stop-color:#2C2829"/>
			<stop  offset="0.5357" style="stop-color:#423E3F"/>
			<stop  offset="0.7908" style="stop-color:#787576"/>
			<stop  offset="1" style="stop-color:#928F90"/>
		</linearGradient>
		<path fill="url(#SVGID_6_)" d="M650,48.8c-0.4,0.1-0.8,0.2-1.2,0.2c-0.7,0-1.4,0-2,0c-16.7,0-33.3,0-50,0c-0.7,0-1.4,0.1-2.1,0.2
			c-0.7,0.1-1.2,0.5-1.4,1.1c-0.2,0.4-0.3,0.8-0.5,1.2c-2.6,8-5.1,16-7.7,24c-0.3,0.9-0.5,1.8-0.9,2.7c-1,0.1-28,0.1-29.5,0
			c0-0.2-0.1-0.4-0.1-0.7c0.1-3.2,0.2-6.4,0.4-9.6c0.1-2.3,0.2-4.6,0.3-7c0.1-3,0.2-5.9,0.3-8.9c0.2-4.8,0.4-9.7,0.6-14.5
			c0.1-1.6,0.1-3.3,0.1-4.9c0.1-1,0.3-2.9,0-2.9c-0.1,0-0.2,0.3-0.3,0.6c-0.2,0.5-0.3,0.9-0.5,1.4c-5,18-9.9,36-14.9,54
			c-0.3,1.1-0.6,2.2-0.9,3.2c-0.2,0.9-0.8,1.5-1.6,1.9c-0.4,0.2-0.8,0.4-1.2,0.3c-4.8,0-9.7,0-14.5,0c-0.1,0-0.2,0-0.4-0.1
			c0.1-0.3,0.1-0.6,0.2-0.9c1.8-6.8,3.7-13.5,5.5-20.3c4.4-15.9,8.7-31.8,13.1-47.7c0.5-1.8,1-3.5,1.5-5.3c0.1-0.2,0.1-0.4,0.2-0.6
			c0.3-0.8,0.5-0.9,1.3-1c0.3,0,0.6,0,0.8,0c9.1,0,18.3,0,27.4,0c0.5,0,1,0,1.6,0.1c0,0.3,0.1,0.6,0,0.8c-0.2,4.5-0.4,9-0.6,13.4
			c-0.1,2.1-0.2,4.2-0.3,6.4c-0.1,3-0.2,6-0.3,9c-0.2,4.7-0.4,9.4-0.6,14.2c-0.1,1.8-0.4,5.1-0.2,5.2c0.2,0.2,0.3,0,0.4-0.2
			c0.7-2,1.4-4,2.1-6c2.4-7.3,4.9-14.6,7.3-21.9c0.2-0.5,0.4-1.1,0.6-1.6c0.4-1,1.2-1.5,2.2-1.6c0.4,0,0.9,0,1.3,0
			c20.7,0,41.3,0,62,0c0.3,0,0.6,0,1,0c0.6,0,1.1,0.2,1.4,0.8C650,39.2,650,44,650,48.8z"/>
		<linearGradient id="SVGID_7_" gradientUnits="userSpaceOnUse" x1="470.2129" y1="25.0076" x2="514.887" y2="69.6818">
			<stop  offset="0.1837" style="stop-color:#2C2829"/>
			<stop  offset="0.5357" style="stop-color:#423E3F"/>
			<stop  offset="0.7908" style="stop-color:#787576"/>
			<stop  offset="1" style="stop-color:#928F90"/>
		</linearGradient>
		<path fill="url(#SVGID_7_)" d="M523.9,49.1c0,7.2-3.1,14.7-9.3,20.8c-4.8,4.7-10.5,7.5-17.1,8.5c-8.7,1.3-16.7-0.6-23.8-5.8
			c-6.2-4.6-10.2-10.8-11.8-18.4c-1.4-6.6-0.9-13.2,1.7-19.4c3.5-8.3,9.7-13.9,18.1-17c4.3-1.6,8.8-2.2,13.3-1.9
			c14,1,23.7,10.5,27.2,21.4C523.3,40.6,523.8,43.9,523.9,49.1z M492.5,61.4c5.4-0.1,9.6-2.4,12.3-7.2c1.5-2.7,2-5.5,1.6-8.6
			c-0.5-3.8-2.1-6.9-5.1-9.3c-3.5-2.9-7.6-3.6-12-2.6c-4.4,1-7.6,3.7-9.5,7.8c-1.3,2.9-1.5,5.9-0.8,8.9
			C480.5,57,486,61.5,492.5,61.4z"/>
		<linearGradient id="SVGID_8_" gradientUnits="userSpaceOnUse" x1="400.9067" y1="25.0495" x2="445.5914" y2="69.7342">
			<stop  offset="0.1837" style="stop-color:#2C2829"/>
			<stop  offset="0.5357" style="stop-color:#423E3F"/>
			<stop  offset="0.7908" style="stop-color:#787576"/>
			<stop  offset="1" style="stop-color:#928F90"/>
		</linearGradient>
		<path fill="url(#SVGID_8_)" d="M423.2,78.8c-8.5-0.1-15.8-2.9-21.9-8.8c-4.6-4.4-7.4-9.8-8.8-16c-0.6-2.9-0.9-5.9-0.7-8.8
			c0.7-11.7,7.4-20.8,16.3-25.5c3.9-2.1,8.1-3.3,12.5-3.7c2.4-0.2,4.8-0.2,7.2,0.1c5.4,0.7,10.3,2.7,14.7,6.1
			c6,4.7,9.8,10.8,11.3,18.3c1.4,6.8,0.9,13.5-2,19.9c-4.2,9.2-11.3,15-21.1,17.5C428.2,78.6,425.7,78.8,423.2,78.8z M423.1,61.4
			c1.8,0,3-0.2,4.6-0.7c6.4-2.1,10.8-8.9,9.1-16.6c-1.5-6.6-7.2-10.6-12.8-10.8c-5.3-0.2-9.6,1.9-12.6,6.3
			c-2.2,3.4-2.7,7.2-1.8,11.1C411.2,57.5,417,61.5,423.1,61.4z"/>
		<linearGradient id="SVGID_9_" gradientUnits="userSpaceOnUse" x1="300.0717" y1="17.9816" x2="371.161" y2="89.0709">
			<stop  offset="0.1837" style="stop-color:#2C2829"/>
			<stop  offset="0.5357" style="stop-color:#423E3F"/>
			<stop  offset="0.7908" style="stop-color:#787576"/>
			<stop  offset="1" style="stop-color:#928F90"/>
		</linearGradient>
		<path fill="url(#SVGID_9_)" d="M347.1,22.2c1.1-0.1,33.4-0.1,34.5,0c0,0,0.1,0.1,0.1,0.1c0,0,0,0.1,0,0.1c0,18.5,0,37,0,55.5
			c0,0.2,0,0.4,0,0.6c0,0-0.1,0.1-0.1,0.2c-0.1,0-0.2,0.1-0.4,0.1c-6,0-12.1,0-18.2,0c0-0.4-0.1-0.7-0.1-1c0-3,0-6.1,0-9.1
			c0-10.5,0-21,0-31.5c0-0.4,0-0.7,0-1.1c0-0.1,0-0.3-0.2-0.3c-0.2,0-0.3,0.3-0.3,0.5c-0.3,0.7-0.5,1.3-0.7,2
			c-4,12.7-7.9,25.4-11.8,38.2c-0.2,0.5-0.3,1.1-0.6,1.6c-0.3,0.7-0.8,1.2-1.7,1.2c-0.5,0-1,0-1.6,0c-4.4,0-8.8,0-13.2,0
			c-4.8,0-9.7,0-14.5,0c-0.4,0-0.7,0-1.1,0c-0.2-0.5-0.1-0.9-0.1-1.3c0-6,0-12,0-18c0-9.1,0-18.2,0-27.3c0-0.4,0.1-0.8,0-1.1
			c0-0.1-0.1-0.1-0.1-0.1c-0.3,0-0.3,0.2-0.4,0.3c0,0.1-0.1,0.1-0.1,0.2c-2.9,10.5-5.8,21-8.7,31.4c-1.3,4.7-2.6,9.5-3.9,14.2
			c-0.1,0.2-0.1,0.4-0.2,0.6c-0.2,0.8-0.8,1.2-1.6,1.2c-0.4,0-0.7,0-1.1,0c-4.6,0-9.2,0-13.8-0.1c-0.8,0-1.7,0-2.5,0
			c-0.2,0-0.5-0.1-0.8-0.1c0.3-1.3,0.7-2.5,1-3.8c5.1-18.6,10.2-37.1,15.3-55.7c0.2-0.7,0.4-1.3,0.6-2c0.4-1.2,1.2-1.8,2.5-1.9
			c0.5,0,1-0.1,1.4-0.1c8.8,0,17.5,0,26.3,0c1.1,0,2.2,0,3.4,0c0.5,0,1,0.1,1.6,0.1c0,0.3,0.1,0.5,0.1,0.7c0,1.1,0,2.2,0,3.4
			c0,11.7,0,23.5,0,35.2c0,0.3-0.1,0.7,0,1c0,0.2,0.3,0.2,0.4,0.1c0.2-0.2,0.2-0.4,0.2-0.6c0.9-2.9,1.8-5.7,2.7-8.6
			c2.5-8,4.9-15.9,7.4-23.9C346.9,22.9,347,22.5,347.1,22.2z"/>
	</g>
</g>
</svg>
